<svg xmlns="http://www.w3.org/2000/svg" xmlns:xlink="http://www.w3.org/1999/xlink" xmlns:serif="http://www.serif.com/" viewBox="0 0 32 40" version="1.1" xml:space="preserve" style="" x="0px" y="0px" fill-rule="evenodd" clip-rule="evenodd" stroke-linejoin="round" stroke-miterlimit="2"><rect serif:id="video call new vc conference" x="0" y="0" width="32" height="32" style="" fill="none"/><path d="M19.042,12.855c-0.006,-0.957 -0.017,-1.914 -0.035,-2.871c-0.016,-0.509 -0.459,-0.957 -0.973,-0.973c-4.014,-0.076 -8.03,-0.076 -12.044,0c-0.509,0.016 -0.956,0.462 -0.972,0.973c-0.077,4.013 -0.075,8.029 0,12.042c0.015,0.512 0.466,0.965 0.986,0.975l8.007,0c0,0 0.709,0.1 0.923,0.617c0.248,0.599 -0.217,1.354 -0.923,1.381c-2.677,0 -5.355,0.017 -8.032,0c-1.547,-0.029 -2.93,-1.366 -2.96,-2.96c-0.025,-4.023 -0.026,-8.045 0,-12.067c0.029,-1.547 1.368,-2.929 2.959,-2.959c4.023,-0.026 8.046,-0.026 12.068,0c1.54,0.029 2.929,1.343 2.96,2.959c0.003,0.53 0.006,1.06 0.008,1.591l6.636,-2.489c0.1,-0.033 0.139,-0.067 0.405,-0.062c0.211,0.019 0.245,0.04 0.334,0.077c0.359,0.152 0.597,0.526 0.611,0.921l0,11.991c-0.016,0.465 -0.115,0.499 -0.228,0.636c-0.265,0.322 -0.631,0.465 -1.122,0.3l-3.997,-1.499c-0.234,-0.096 -0.291,-0.155 -0.391,-0.266c-0.578,-0.64 0.029,-1.963 1.092,-1.605l2.647,0.993l0,-9.108l-5.979,2.242c0.007,2.782 0.001,5.564 -0.016,8.346c-0.03,1.552 -1.367,2.949 -2.995,2.959c0,0 -0.537,-0.034 -0.812,-0.412c-0.399,-0.55 -0.026,-1.466 0.653,-1.574c0.19,-0.03 0.128,-0.001 0.284,-0.02c0.474,-0.063 0.862,-0.496 0.871,-0.978c0.019,-2.986 0.052,-5.973 0.036,-8.959c-0.007,-0.067 -0.008,-0.134 -0.001,-0.201Zm-8.029,2.152l0,-2.998c0.005,-0.183 0.022,-0.233 0.056,-0.33c0.137,-0.392 0.445,-0.656 0.943,-0.67c0.019,0.001 0.038,0.001 0.056,0.002c0.182,0.015 0.232,0.035 0.327,0.074c0.366,0.152 0.603,0.445 0.617,0.924l0,2.998l2.997,0c0.019,0 0.038,0.001 0.056,0.001c0.531,0.045 0.582,0.195 0.726,0.375c0.442,0.555 0.069,1.576 -0.726,1.621c-0.018,0.001 -0.037,0.001 -0.056,0.001l-2.997,0l0,2.998c-0.025,0.869 -1.427,1.416 -1.9,0.434c-0.062,-0.13 -0.093,-0.205 -0.099,-0.434l0,-2.998l-2.998,0c-0.867,-0.024 -1.408,-1.43 -0.433,-1.9c0.129,-0.062 0.204,-0.092 0.433,-0.098l2.998,0Z"/><text x="0" y="47" fill="#000000" font-size="5px" font-weight="bold" font-family="'Helvetica Neue', Helvetica, Arial-Unicode, Arial, Sans-serif">Created by Bombasticon Studio</text><text x="0" y="52" fill="#000000" font-size="5px" font-weight="bold" font-family="'Helvetica Neue', Helvetica, Arial-Unicode, Arial, Sans-serif">from the Noun Project</text></svg>